<?xml version="1.0" encoding="utf-8"?>
<!-- Generator: Adobe Illustrator 23.0.1, SVG Export Plug-In . SVG Version: 6.00 Build 0)  -->
<svg version="1.1" xmlns="http://www.w3.org/2000/svg" xmlns:xlink="http://www.w3.org/1999/xlink" x="0px" y="0px"
	 viewBox="0 0 512 512" style="enable-background:new 0 0 512 512;" xml:space="preserve">
<style type="text/css">
	.st0{fill:url(#SVGID_1_);stroke:#B8BBCA;stroke-miterlimit:10;}
	.st1{fill:url(#SVGID_2_);stroke:#B8BBCA;stroke-miterlimit:10;}
	.st2{fill:url(#SVGID_3_);stroke:#B8BBCA;stroke-miterlimit:10;}
	.st3{fill:url(#SVGID_4_);stroke:#B8BBCA;stroke-miterlimit:10;}
	.st4{fill:url(#SVGID_5_);stroke:#B8BBCA;stroke-miterlimit:10;}
	.st5{opacity:0.77;fill:#F1F0F1;}
	.st6{fill:url(#SVGID_6_);stroke:#B8BBCA;stroke-miterlimit:10;}
	.st7{fill:url(#SVGID_7_);stroke:#B8BBCA;stroke-miterlimit:10;}
	.st8{fill:url(#SVGID_8_);stroke:#B8BBCA;stroke-miterlimit:10;}
	.st9{fill:url(#SVGID_9_);stroke:#B8BBCA;stroke-miterlimit:10;}
	.st10{fill:url(#SVGID_10_);stroke:#B8BBCA;stroke-miterlimit:10;}
	.st11{fill:#CBCBD2;stroke:#B1B6BF;stroke-miterlimit:10;}
	.st12{fill:#B7BEBF;}
	.st13{fill:#E1E3E4;}
	.st14{opacity:0.77;fill:#F4F4F4;}
	.st15{fill:#E0E4E4;stroke:#CAD0D3;stroke-miterlimit:10;}
</style>
<g id="Capa_1">
</g>
<g id="Capa_2">
	<g>
		<polygon class="st12" points="0,459.82 60.19,367.23 85.4,462.36 202.34,300.38 219.76,300.38 80.68,504 51.23,402.19 		"/>
		<polygon class="st13" points="80.68,504 222.96,496.7 345.13,333.04 382.78,367.23 366.64,169.37 155.34,300.38 219.76,300.38 		
			"/>
		<polygon class="st13" points="60.19,367.23 141.13,367.23 146.89,377.19 85.4,462.36 		"/>
		<polygon class="st13" points="0,459.82 67.9,459.82 51.23,402.19 		"/>
		<polygon class="st12" points="155.34,300.38 148.04,286.42 366.64,169.37 		"/>
		<path class="st14" d="M194.14,443.68l170.53-273.09L155.34,300.38h64.42C219.76,300.38,209.84,354.81,194.14,443.68z"/>
		<path class="st13" d="M400.07,160.92c0,0,89.64-163.66,110.9-150.86C532.23,22.87,400.07,160.92,400.07,160.92z"/>
		<path class="st13" d="M400.78,279.76c0,0,50.25-91.74,62.16-84.56C474.86,202.38,400.78,279.76,400.78,279.76z"/>
		<g>
			<path class="st15" d="M91.54,140.55H53.09v-6.7l3.92-0.32c3.16-0.21,5.32-1.02,6.48-2.43c1.16-1.41,1.74-4.94,1.74-10.59V67.37
				c0-5.69-0.58-9.24-1.74-10.66c-1.16-1.41-3.34-2.22-6.55-2.44l-3.86-0.25v-6.77h41.43c9.57,0,16.96,0.57,22.17,1.71
				c5.21,1.14,9.92,2.99,14.14,5.57c6.7,4.13,11.89,9.64,15.56,16.51c3.67,6.87,5.5,14.55,5.5,23.02c0,8.52-1.84,16.22-5.53,23.12
				c-3.69,6.89-8.91,12.39-15.65,16.48c-4.05,2.45-8.49,4.21-13.31,5.28c-4.83,1.07-12.05,1.61-21.66,1.61H91.54z M88.7,67.37v53.13
				c0,6.07,0.85,9.81,2.56,11.23c1.71,1.41,5.18,2.12,10.4,2.12c8.31,0,14.46-3.26,18.47-9.77c4.01-6.51,6.01-16.52,6.01-30.01
				c0-13.32-2.09-23.35-6.26-30.08c-4.17-6.73-10.37-10.09-18.6-10.09c-4.98,0-8.32,0.72-10.03,2.15
				C89.55,57.48,88.7,61.25,88.7,67.37z"/>
			<path class="st15" d="M189.48,120.5c0,5.52,0.62,9.02,1.87,10.5c1.24,1.48,3.59,2.32,7.05,2.53l4.05,0.32v6.7h-48.58v-6.7
				l3.92-0.32c3.16-0.21,5.32-1.02,6.48-2.43c1.16-1.41,1.74-4.94,1.74-10.59V67.37c0-5.69-0.58-9.24-1.74-10.66
				c-1.16-1.41-3.34-2.22-6.55-2.44l-3.86-0.25v-6.77h41.43c16.07,0,27.77,2.06,35.1,6.17c7.34,4.11,11.01,10.62,11.01,19.51
				c0,8.35-3.58,14.78-10.75,19.29c-7.17,4.51-17.48,6.77-30.93,6.77c-1.6,0-3.25-0.03-4.93-0.1c-1.69-0.06-3.46-0.16-5.31-0.28
				V120.5z M189.48,65.03v26.63c0.55,0.09,1.12,0.14,1.71,0.16c0.59,0.02,1.45,0.03,2.59,0.03c8.26,0,14.13-1.48,17.58-4.43
				c3.46-2.95,5.19-7.91,5.19-14.86c0-6.28-1.45-10.96-4.36-14.04c-2.91-3.08-7.27-4.62-13.09-4.62c-3.92,0-6.5,0.59-7.75,1.77
				C190.11,56.85,189.48,59.97,189.48,65.03z"/>
			<path class="st15" d="M287.49,47.25v6.77l-3.73,0.25c-3.2,0.21-5.41,1.04-6.61,2.5c-1.2,1.46-1.8,4.99-1.8,10.59v53.13
				c0,5.57,0.59,9.08,1.77,10.53c1.18,1.46,3.39,2.29,6.64,2.5l3.73,0.32v6.7h-47.75v-6.7l3.92-0.32c3.16-0.21,5.32-1.02,6.48-2.43
				c1.16-1.41,1.74-4.94,1.74-10.59V67.37c0-5.69-0.58-9.24-1.74-10.66c-1.16-1.41-3.34-2.22-6.55-2.44l-3.86-0.25v-6.77H287.49z"/>
			<path class="st15" d="M376.64,108.8c-2.07,11.09-6.58,19.59-13.54,25.49c-6.96,5.9-15.96,8.85-27.01,8.85
				c-6.37,0-12.28-1.07-17.74-3.19c-5.46-2.13-10.38-5.3-14.77-9.52c-4.64-4.43-8.14-9.7-10.5-15.81
				c-2.36-6.11-3.54-12.97-3.54-20.56c0-7.29,1.24-13.97,3.73-20.02c2.49-6.05,6.18-11.4,11.07-16.03c4.38-4.17,9.3-7.35,14.74-9.52
				c5.44-2.17,11.2-3.26,17.27-3.26c2.53,0,5.01,0.22,7.43,0.66c2.42,0.44,4.71,1.09,6.86,1.93c0.67,0.3,1.64,0.72,2.91,1.26
				c4.68,1.98,7.76,2.97,9.23,2.97c1.43,0,2.56-0.55,3.38-1.64c0.82-1.1,1.23-2.61,1.23-4.55h6.77l1.52,38.71h-6.58
				c-2.91-11.09-6.57-19.08-10.97-23.97c-4.41-4.89-10.11-7.34-17.11-7.34c-8.48,0-14.87,3.46-19.2,10.37
				c-4.32,6.92-6.48,17.14-6.48,30.68c0,13.83,1.99,24.11,5.98,30.83c3.98,6.73,10.07,10.09,18.25,10.09
				c6.87,0,12.83-2.31,17.87-6.93c5.04-4.62,8.68-11.12,10.91-19.51H376.64z"/>
		</g>
		<g>
			<path class="st15" d="M383.75,414.96l0.47,25.18h-5.44c-0.95-6.74-3.32-11.73-7.13-14.98c-3.8-3.25-9.15-4.87-16.03-4.87
				c-3.91,0-6.51,0.54-7.79,1.62c-1.28,1.08-1.92,4.15-1.92,9.19v16.55h3.79c4.1,0,7.18-1.11,9.23-3.33
				c2.05-2.22,3.2-5.66,3.46-10.33h5.54v33.51l-5.54-0.05c-0.28-4.94-1.46-8.6-3.53-10.97c-2.07-2.37-5.12-3.55-9.16-3.55h-3.79
				v20.82c0,4.47,0.44,7.29,1.33,8.45c0.88,1.17,2.54,1.84,4.97,2l2.79,0.25v5.38h-35.74v-5.38l2.93-0.25
				c2.37-0.17,3.98-0.82,4.85-1.95c0.87-1.13,1.3-3.97,1.3-8.51v-42.65c0-4.57-0.43-7.42-1.3-8.56c-0.87-1.13-2.5-1.78-4.9-1.95
				l-2.89-0.2v-5.43H383.75z"/>
			<path class="st15" d="M450.14,433.7c0-5.28-0.69-8.79-2.08-10.54c-1.39-1.74-4.06-2.68-8-2.82v-5.38h25.71v5.43
				c-3.69,0.14-6.2,1.08-7.53,2.84c-1.33,1.76-1.99,5.25-1.99,10.46v56.15h-8.05l-43.93-54.88v36.15c0,5.28,0.7,8.79,2.11,10.53
				c1.4,1.74,4.09,2.68,8.07,2.82v5.38h-26.27v-5.38c3.91-0.14,6.56-1.07,7.93-2.82c1.37-1.74,2.06-5.25,2.06-10.53v-43.97
				c-1.51-2.1-3.09-3.69-4.73-4.77c-1.64-1.08-3.49-1.76-5.54-2.03v-5.38h22.58l39.67,50.16V433.7z"/>
			<path class="st15" d="M506.55,414.96v5.43l-2.79,0.2c-2.4,0.17-4.05,0.84-4.95,2.01c-0.9,1.17-1.35,4-1.35,8.5v42.65
				c0,4.47,0.44,7.29,1.33,8.45c0.88,1.17,2.54,1.84,4.97,2l2.79,0.25v5.38h-35.74v-5.38l2.93-0.25c2.37-0.17,3.98-0.82,4.85-1.95
				c0.87-1.13,1.3-3.97,1.3-8.51v-42.65c0-4.57-0.43-7.42-1.3-8.56c-0.87-1.13-2.5-1.78-4.9-1.95l-2.89-0.2v-5.43H506.55z"/>
		</g>
	</g>
</g>
<g id="Capa_3">
</g>
</svg>
