<?xml version="1.0" encoding="utf-8"?>
<!-- Generator: Adobe Illustrator 23.0.1, SVG Export Plug-In . SVG Version: 6.00 Build 0)  -->
<svg version="1.1" id="Capa_1" xmlns="http://www.w3.org/2000/svg" xmlns:xlink="http://www.w3.org/1999/xlink" x="0px" y="0px"
	 viewBox="0 0 256 56" style="enable-background:new 0 0 256 56;" xml:space="preserve">
<g>
	<polygon style="fill:#B6BDBE;" points="10.208,47.455 19.685,32.876 23.655,47.855 42.068,22.35 44.811,22.35 22.912,54.412 
		18.275,38.381 	"/>
	<polygon style="fill:#E1E2E3;" points="22.912,54.412 45.315,53.262 64.552,27.492 70.48,32.876 67.939,1.721 34.668,22.35 
		44.811,22.35 	"/>
	<polygon style="fill:#E1E2E3;" points="19.685,32.876 32.43,32.876 33.337,34.444 23.655,47.855 	"/>
	<polygon style="fill:#E1E2E3;" points="10.208,47.455 20.899,47.455 18.275,38.381 	"/>
	<polygon style="fill:#B6BDBE;" points="34.668,22.35 33.518,20.152 67.939,1.721 	"/>
	<path style="opacity:0.77;fill:#F5F4F4;enable-background:new    ;" d="M40.777,44.914L67.629,1.913L34.668,22.35h10.144
		C44.811,22.35,43.249,30.92,40.777,44.914z"/>
</g>
<g>
	<g>
		<path style="fill:#DFE3E3;stroke:#C9CFD2;stroke-miterlimit:10;" d="M102.302,29.749h-9.291V28.13l0.947-0.077
			c0.764-0.051,1.286-0.246,1.566-0.587c0.28-0.341,0.42-1.194,0.42-2.559V12.066c0-1.375-0.14-2.233-0.42-2.576
			c-0.28-0.341-0.807-0.536-1.583-0.59l-0.933-0.06V7.204h10.011c2.313,0,4.098,0.138,5.357,0.413
			c1.259,0.275,2.397,0.723,3.417,1.346c1.619,0.998,2.873,2.329,3.76,3.989c0.887,1.66,1.329,3.516,1.329,5.563
			c0,2.059-0.445,3.919-1.336,5.587c-0.892,1.665-2.153,2.994-3.782,3.982c-0.979,0.592-2.052,1.017-3.216,1.276
			c-1.167,0.259-2.912,0.389-5.234,0.389H102.302z M101.616,12.066v12.838c0,1.467,0.205,2.371,0.619,2.714
			c0.413,0.341,1.252,0.512,2.513,0.512c2.008,0,3.494-0.788,4.463-2.361c0.969-1.573,1.452-3.992,1.452-7.252
			c0-3.219-0.505-5.642-1.513-7.269s-2.506-2.438-4.495-2.438c-1.203,0-2.01,0.174-2.424,0.52
			C101.822,9.676,101.616,10.587,101.616,12.066z"/>
		<path style="fill:#DFE3E3;stroke:#C9CFD2;stroke-miterlimit:10;" d="M125.969,24.904c0,1.334,0.15,2.18,0.452,2.537
			c0.3,0.358,0.867,0.561,1.704,0.611l0.979,0.077v1.619h-11.739V28.13l0.947-0.077c0.764-0.051,1.286-0.246,1.566-0.587
			c0.28-0.341,0.42-1.194,0.42-2.559V12.066c0-1.375-0.14-2.233-0.42-2.576c-0.28-0.341-0.807-0.536-1.583-0.59l-0.933-0.06V7.204
			h10.011c3.883,0,6.71,0.498,8.482,1.491c1.774,0.993,2.66,2.566,2.66,4.714c0,2.018-0.865,3.571-2.598,4.661
			c-1.733,1.09-4.224,1.636-7.474,1.636c-0.387,0-0.785-0.007-1.191-0.024c-0.408-0.014-0.836-0.039-1.283-0.068V24.904
			L125.969,24.904z M125.969,11.5v6.435c0.133,0.022,0.271,0.034,0.413,0.039c0.143,0.005,0.35,0.007,0.626,0.007
			c1.996,0,3.414-0.358,4.248-1.07c0.836-0.713,1.254-1.911,1.254-3.591c0-1.518-0.35-2.648-1.054-3.393
			c-0.703-0.744-1.757-1.116-3.163-1.116c-0.947,0-1.571,0.143-1.873,0.428C126.121,9.524,125.969,10.278,125.969,11.5z"/>
		<path style="fill:#DFE3E3;stroke:#C9CFD2;stroke-miterlimit:10;" d="M149.652,7.204V8.84l-0.901,0.06
			c-0.773,0.051-1.307,0.251-1.597,0.604c-0.29,0.353-0.435,1.206-0.435,2.559v12.838c0,1.346,0.143,2.194,0.428,2.544
			c0.285,0.353,0.819,0.553,1.605,0.604l0.901,0.077v1.619h-11.538v-1.619l0.947-0.077c0.764-0.051,1.286-0.246,1.566-0.587
			c0.28-0.341,0.42-1.194,0.42-2.559V12.066c0-1.375-0.14-2.233-0.42-2.576c-0.28-0.341-0.807-0.536-1.583-0.59l-0.933-0.06V7.204
			C138.111,7.204,149.652,7.204,149.652,7.204z"/>
		<path style="fill:#DFE3E3;stroke:#C9CFD2;stroke-miterlimit:10;" d="M171.194,22.077c-0.5,2.68-1.59,4.734-3.272,6.159
			c-1.682,1.426-3.857,2.139-6.527,2.139c-1.539,0-2.967-0.259-4.287-0.771c-1.319-0.515-2.508-1.281-3.569-2.3
			c-1.121-1.07-1.967-2.344-2.537-3.82s-0.855-3.134-0.855-4.968c0-1.762,0.3-3.376,0.901-4.838s1.493-2.755,2.675-3.874
			c1.058-1.008,2.247-1.776,3.562-2.3s2.706-0.788,4.173-0.788c0.611,0,1.211,0.053,1.795,0.159
			c0.585,0.106,1.138,0.263,1.658,0.466c0.162,0.072,0.396,0.174,0.703,0.304c1.131,0.478,1.875,0.718,2.23,0.718
			c0.346,0,0.619-0.133,0.817-0.396c0.198-0.266,0.297-0.631,0.297-1.099h1.636l0.367,9.354h-1.59
			c-0.703-2.68-1.588-4.611-2.651-5.792c-1.066-1.182-2.443-1.774-4.134-1.774c-2.049,0-3.593,0.836-4.64,2.506
			c-1.044,1.672-1.566,4.142-1.566,7.414c0,3.342,0.481,5.826,1.445,7.45c0.962,1.626,2.433,2.438,4.41,2.438
			c1.66,0,3.1-0.558,4.318-1.675c1.218-1.116,2.097-2.687,2.636-4.714h2.003V22.077z"/>
	</g>
	<g>
		<path style="fill:#DFE3E3;stroke:#C9CFD2;stroke-miterlimit:10;" d="M198.779,6.719l0.148,7.955h-1.719
			c-0.3-2.129-1.049-3.706-2.253-4.732c-1.2-1.027-2.891-1.539-5.064-1.539c-1.235,0-2.057,0.171-2.461,0.512
			s-0.607,1.311-0.607,2.903v5.228h1.197c1.295,0,2.268-0.351,2.916-1.052c0.648-0.701,1.011-1.788,1.093-3.263h1.75v10.586
			l-1.75-0.016c-0.088-1.561-0.461-2.717-1.115-3.466c-0.654-0.749-1.617-1.122-2.894-1.122h-1.197v6.577
			c0,1.412,0.139,2.303,0.42,2.67c0.278,0.37,0.802,0.581,1.57,0.632l0.881,0.079v1.7h-11.291v-1.7l0.926-0.079
			c0.749-0.054,1.257-0.259,1.532-0.616c0.275-0.357,0.411-1.254,0.411-2.688V11.815c0-1.444-0.136-2.344-0.411-2.704
			c-0.275-0.357-0.79-0.562-1.548-0.616l-0.913-0.063V6.716h20.377V6.719z"/>
		<path style="fill:#DFE3E3;stroke:#C9CFD2;stroke-miterlimit:10;" d="M219.753,12.639c0-1.668-0.218-2.777-0.657-3.33
			c-0.439-0.55-1.283-0.847-2.527-0.891v-1.7h8.122v1.715c-1.166,0.044-1.959,0.341-2.379,0.897s-0.629,1.659-0.629,3.305v17.739
			h-2.543l-13.878-17.338v11.42c0,1.668,0.221,2.777,0.667,3.327c0.442,0.55,1.292,0.847,2.549,0.891v1.7h-8.299v-1.7
			c1.235-0.044,2.072-0.338,2.505-0.891c0.433-0.55,0.651-1.659,0.651-3.327V10.567c-0.477-0.663-0.976-1.166-1.494-1.507
			s-1.103-0.556-1.75-0.641v-1.7h7.133l12.532,15.846v-9.926H219.753z"/>
		<path style="fill:#DFE3E3;stroke:#C9CFD2;stroke-miterlimit:10;" d="M237.574,6.719v1.715l-0.881,0.063
			c-0.758,0.054-1.279,0.265-1.564,0.635c-0.284,0.37-0.426,1.264-0.426,2.685v13.474c0,1.412,0.139,2.303,0.42,2.67
			c0.278,0.37,0.802,0.581,1.57,0.632l0.881,0.079v1.7h-11.291v-1.7l0.926-0.079c0.749-0.054,1.257-0.259,1.532-0.616
			c0.275-0.357,0.411-1.254,0.411-2.688V11.815c0-1.444-0.136-2.344-0.411-2.704c-0.275-0.357-0.79-0.562-1.548-0.616l-0.913-0.063
			V6.716h11.294V6.719z"/>
	</g>
</g>
<g>
	<path style="fill:#C9CFD2;" d="M93.55,40.107v-4.628h1.456c0.604,0,1.09,0.186,1.458,0.558s0.552,0.853,0.552,1.441v0.633
		c0,0.591-0.184,1.071-0.552,1.441s-0.854,0.555-1.458,0.555H93.55z M94.176,35.972v3.646h0.83c0.428,0,0.766-0.142,1.013-0.423
		c0.247-0.282,0.37-0.644,0.37-1.084v-0.639c0-0.437-0.124-0.796-0.37-1.078c-0.247-0.281-0.584-0.423-1.013-0.423H94.176z"/>
	<path style="fill:#C9CFD2;" d="M98.55,35.787h-0.626v-0.639h0.626V35.787z M98.55,40.107h-0.626v-3.439h0.626V40.107z"/>
	<path style="fill:#C9CFD2;" d="M101.141,37.221l-0.321-0.019c-0.166,0-0.305,0.039-0.418,0.117
		c-0.113,0.079-0.201,0.189-0.262,0.331v2.457h-0.626v-3.439h0.56l0.06,0.502c0.098-0.178,0.218-0.316,0.361-0.416
		s0.308-0.149,0.495-0.149c0.046,0,0.091,0.004,0.133,0.011c0.042,0.008,0.077,0.016,0.105,0.024L101.141,37.221z"/>
	<path style="fill:#C9CFD2;" d="M103.155,40.174c-0.494,0-0.879-0.157-1.155-0.474c-0.276-0.315-0.415-0.73-0.415-1.246v-0.14
		c0-0.493,0.143-0.902,0.428-1.226s0.633-0.484,1.044-0.484c0.459,0,0.805,0.143,1.035,0.429c0.229,0.286,0.345,0.667,0.345,1.142
		v0.33h-2.2l-0.01,0.017c0,0.345,0.077,0.625,0.229,0.841c0.153,0.215,0.386,0.322,0.699,0.322c0.212,0,0.398-0.03,0.558-0.091
		s0.297-0.144,0.412-0.249l0.245,0.406c-0.123,0.119-0.285,0.22-0.486,0.301C103.682,40.134,103.439,40.174,103.155,40.174z
		 M103.057,37.098c-0.218,0-0.399,0.084-0.542,0.252c-0.143,0.169-0.23,0.385-0.262,0.647l0.006,0.016h1.551v-0.051
		c0-0.25-0.061-0.457-0.184-0.62S103.313,37.098,103.057,37.098z"/>
	<path style="fill:#C9CFD2;" d="M106.506,39.685c0.193,0,0.361-0.064,0.505-0.192s0.216-0.285,0.216-0.472h0.566l0.009,0.019
		c0.009,0.297-0.119,0.561-0.381,0.79c-0.263,0.23-0.568,0.345-0.916,0.345c-0.483,0-0.856-0.164-1.119-0.492
		c-0.263-0.329-0.395-0.737-0.395-1.228v-0.133c0-0.485,0.132-0.893,0.396-1.223c0.264-0.329,0.636-0.494,1.117-0.494
		c0.384,0,0.698,0.119,0.942,0.356c0.245,0.237,0.363,0.528,0.354,0.874l-0.006,0.019h-0.569c0-0.21-0.068-0.388-0.205-0.535
		s-0.309-0.221-0.517-0.221c-0.307,0-0.531,0.119-0.672,0.357c-0.141,0.238-0.211,0.527-0.211,0.866v0.133
		c0,0.346,0.07,0.638,0.208,0.875S106.194,39.685,106.506,39.685z"/>
	<path style="fill:#C9CFD2;" d="M109.914,39.685c0.193,0,0.361-0.064,0.505-0.192s0.216-0.285,0.216-0.472h0.566l0.009,0.019
		c0.009,0.297-0.119,0.561-0.381,0.79c-0.263,0.23-0.568,0.345-0.916,0.345c-0.483,0-0.856-0.164-1.119-0.492
		c-0.263-0.329-0.395-0.737-0.395-1.228v-0.133c0-0.485,0.132-0.893,0.396-1.223c0.264-0.329,0.636-0.494,1.117-0.494
		c0.384,0,0.698,0.119,0.942,0.356c0.245,0.237,0.363,0.528,0.354,0.874l-0.006,0.019h-0.569c0-0.21-0.068-0.388-0.205-0.535
		s-0.309-0.221-0.517-0.221c-0.307,0-0.531,0.119-0.672,0.357c-0.141,0.238-0.211,0.527-0.211,0.866v0.133
		c0,0.346,0.07,0.638,0.208,0.875S109.602,39.685,109.914,39.685z"/>
	<path style="fill:#C9CFD2;" d="M112.632,35.787h-0.626v-0.639h0.626V35.787z M112.632,40.107h-0.626v-3.439h0.626V40.107z"/>
	<path style="fill:#C9CFD2;" d="M113.448,38.355c0-0.508,0.138-0.927,0.414-1.257c0.275-0.329,0.649-0.494,1.122-0.494
		c0.477,0,0.854,0.164,1.13,0.493c0.276,0.328,0.415,0.748,0.415,1.258v0.07c0,0.513-0.138,0.933-0.414,1.259
		c-0.275,0.326-0.65,0.489-1.125,0.489s-0.851-0.163-1.127-0.491c-0.276-0.327-0.415-0.746-0.415-1.257V38.355z M114.075,38.426
		c0,0.364,0.077,0.666,0.23,0.903s0.382,0.355,0.685,0.355c0.299,0,0.525-0.118,0.68-0.355s0.232-0.539,0.232-0.903v-0.07
		c0-0.359-0.078-0.659-0.233-0.899c-0.156-0.239-0.384-0.358-0.685-0.358c-0.299,0-0.525,0.119-0.679,0.358
		c-0.154,0.24-0.23,0.54-0.23,0.899V38.426z M115.292,35.209h0.731l0.006,0.02l-0.855,0.826h-0.47L115.292,35.209z"/>
	<path style="fill:#C9CFD2;" d="M117.854,36.668l0.044,0.512c0.114-0.182,0.258-0.323,0.431-0.424s0.369-0.151,0.59-0.151
		c0.371,0,0.658,0.108,0.861,0.326c0.203,0.217,0.305,0.552,0.305,1.006v2.171h-0.626v-2.158c0-0.303-0.06-0.519-0.18-0.646
		c-0.12-0.127-0.302-0.19-0.548-0.19c-0.193,0-0.356,0.038-0.491,0.116c-0.135,0.077-0.241,0.186-0.32,0.325v2.553h-0.626v-3.439
		H117.854z"/>
	<path style="fill:#C9CFD2;" d="M122.47,38.451c0-0.553,0.118-0.999,0.354-1.338s0.567-0.509,0.993-0.509
		c0.201,0,0.38,0.037,0.536,0.111s0.289,0.183,0.399,0.324v-1.892h0.626v4.959h-0.48l-0.096-0.436
		c-0.112,0.165-0.251,0.29-0.416,0.375c-0.166,0.085-0.357,0.127-0.576,0.127c-0.419,0-0.748-0.151-0.985-0.456
		c-0.237-0.304-0.356-0.704-0.356-1.2V38.451z M123.096,38.518c0,0.348,0.071,0.626,0.213,0.835
		c0.142,0.209,0.362,0.313,0.661,0.313c0.187,0,0.343-0.043,0.47-0.128c0.127-0.084,0.231-0.203,0.312-0.355v-1.605
		c-0.081-0.142-0.185-0.255-0.313-0.339c-0.128-0.083-0.282-0.125-0.462-0.125c-0.301,0-0.523,0.124-0.666,0.372
		s-0.215,0.569-0.215,0.966V38.518z"/>
	<path style="fill:#C9CFD2;" d="M127.736,40.174c-0.494,0-0.879-0.157-1.155-0.474c-0.276-0.315-0.415-0.73-0.415-1.246v-0.14
		c0-0.493,0.143-0.902,0.428-1.226s0.633-0.484,1.044-0.484c0.459,0,0.805,0.143,1.035,0.429c0.229,0.286,0.345,0.667,0.345,1.142
		v0.33h-2.2l-0.01,0.017c0,0.345,0.077,0.625,0.229,0.841c0.153,0.215,0.386,0.322,0.699,0.322c0.212,0,0.398-0.03,0.558-0.091
		s0.297-0.144,0.412-0.249l0.245,0.406c-0.123,0.119-0.285,0.22-0.486,0.301C128.263,40.134,128.021,40.174,127.736,40.174z
		 M127.638,37.098c-0.218,0-0.399,0.084-0.542,0.252c-0.143,0.169-0.23,0.385-0.262,0.647l0.006,0.016h1.551v-0.051
		c0-0.25-0.061-0.457-0.184-0.62S127.895,37.098,127.638,37.098z"/>
	<path style="fill:#C9CFD2;" d="M132.05,38.251v1.856h-0.626v-4.628h1.771c0.494,0,0.877,0.127,1.152,0.381
		c0.273,0.255,0.412,0.59,0.412,1.005c0,0.42-0.139,0.756-0.412,1.008c-0.275,0.252-0.658,0.378-1.152,0.378H132.05z M132.05,37.762
		h1.145c0.314,0,0.547-0.084,0.703-0.253c0.154-0.168,0.23-0.381,0.23-0.638c0-0.256-0.076-0.47-0.232-0.642
		s-0.391-0.258-0.701-0.258h-1.145V37.762z"/>
	<path style="fill:#C9CFD2;" d="M135.289,38.355c0-0.508,0.138-0.927,0.413-1.257c0.275-0.329,0.649-0.494,1.122-0.494
		c0.477,0,0.854,0.164,1.13,0.493c0.276,0.328,0.415,0.748,0.415,1.258v0.07c0,0.513-0.138,0.933-0.413,1.259
		s-0.651,0.489-1.126,0.489s-0.85-0.163-1.126-0.491c-0.277-0.327-0.415-0.746-0.415-1.257V38.355z M135.915,38.426
		c0,0.364,0.077,0.666,0.23,0.903s0.382,0.355,0.685,0.355c0.299,0,0.526-0.118,0.681-0.355s0.232-0.539,0.232-0.903v-0.07
		c0-0.359-0.078-0.659-0.234-0.899c-0.155-0.239-0.384-0.358-0.685-0.358c-0.299,0-0.525,0.119-0.679,0.358
		c-0.153,0.24-0.23,0.54-0.23,0.899V38.426z"/>
	<path style="fill:#C9CFD2;" d="M141.135,39.183c0-0.138-0.053-0.25-0.157-0.337c-0.105-0.087-0.304-0.163-0.597-0.229
		c-0.404-0.087-0.716-0.208-0.933-0.365c-0.217-0.156-0.326-0.366-0.326-0.629c0-0.28,0.12-0.52,0.358-0.719
		s0.547-0.299,0.926-0.299c0.391,0,0.706,0.106,0.947,0.317c0.242,0.213,0.357,0.459,0.347,0.741l-0.006,0.019h-0.598
		c0-0.147-0.065-0.282-0.195-0.403c-0.131-0.121-0.296-0.181-0.495-0.181c-0.22,0-0.385,0.05-0.494,0.148
		c-0.108,0.101-0.163,0.219-0.163,0.356c0,0.136,0.047,0.24,0.142,0.314c0.094,0.074,0.288,0.143,0.583,0.204
		c0.422,0.089,0.741,0.215,0.96,0.378c0.218,0.163,0.327,0.376,0.327,0.639c0,0.306-0.123,0.555-0.37,0.747
		c-0.247,0.193-0.569,0.289-0.968,0.289c-0.438,0-0.784-0.111-1.036-0.333c-0.253-0.223-0.372-0.482-0.359-0.779l0.006-0.019h0.598
		c0.011,0.222,0.094,0.385,0.248,0.487c0.155,0.103,0.336,0.154,0.544,0.154c0.223,0,0.396-0.047,0.522-0.142
		C141.071,39.449,141.135,39.329,141.135,39.183z"/>
	<path style="fill:#C9CFD2;" d="M143.41,35.839v0.829h0.652v0.464h-0.652v2.089c0,0.161,0.034,0.274,0.101,0.34
		s0.155,0.099,0.266,0.099c0.036,0,0.076-0.005,0.12-0.015c0.045-0.009,0.082-0.02,0.111-0.03l0.086,0.43
		c-0.047,0.038-0.115,0.069-0.206,0.094c-0.092,0.024-0.182,0.036-0.271,0.036c-0.254,0-0.457-0.076-0.607-0.23
		c-0.15-0.153-0.226-0.395-0.226-0.723v-2.089h-0.547v-0.464h0.547v-0.829H143.41z"/>
	<path style="fill:#C9CFD2;" d="M144.622,38.451c0-0.553,0.117-0.999,0.354-1.338s0.566-0.509,0.99-0.509
		c0.219,0,0.41,0.044,0.576,0.132c0.165,0.088,0.304,0.215,0.416,0.38l0.076-0.448h0.499v3.459c0,0.44-0.128,0.779-0.385,1.016
		c-0.256,0.235-0.626,0.354-1.109,0.354c-0.165,0-0.344-0.022-0.535-0.068c-0.192-0.045-0.361-0.107-0.507-0.186l0.095-0.486
		c0.121,0.063,0.267,0.115,0.438,0.154c0.17,0.039,0.339,0.059,0.504,0.059c0.305,0,0.527-0.069,0.666-0.208
		s0.208-0.351,0.208-0.634v-0.392c-0.112,0.145-0.247,0.253-0.403,0.327c-0.157,0.074-0.339,0.111-0.544,0.111
		c-0.42,0-0.748-0.151-0.984-0.456c-0.236-0.304-0.354-0.704-0.354-1.2V38.451z M145.248,38.518c0,0.346,0.07,0.623,0.213,0.833
		c0.142,0.21,0.361,0.315,0.658,0.315c0.188,0,0.346-0.043,0.474-0.129c0.127-0.086,0.231-0.207,0.314-0.364V37.59
		c-0.081-0.146-0.186-0.263-0.314-0.348c-0.13-0.086-0.285-0.129-0.468-0.129c-0.299,0-0.52,0.124-0.663,0.372
		c-0.143,0.248-0.214,0.569-0.214,0.966V38.518z"/>
	<path style="fill:#C9CFD2;" d="M150.061,37.221l-0.321-0.019c-0.165,0-0.305,0.039-0.418,0.117c-0.113,0.079-0.2,0.189-0.262,0.331
		v2.457h-0.627v-3.439h0.56l0.061,0.502c0.098-0.178,0.218-0.316,0.361-0.416c0.143-0.1,0.308-0.149,0.494-0.149
		c0.046,0,0.091,0.004,0.133,0.011c0.043,0.008,0.078,0.016,0.105,0.024L150.061,37.221z"/>
	<path style="fill:#C9CFD2;" d="M152.826,40.107c-0.021-0.104-0.038-0.195-0.049-0.275c-0.012-0.079-0.019-0.159-0.021-0.239
		c-0.116,0.165-0.269,0.304-0.456,0.414c-0.188,0.111-0.389,0.167-0.605,0.167c-0.357,0-0.631-0.091-0.818-0.274
		s-0.281-0.437-0.281-0.759c0-0.328,0.133-0.585,0.399-0.771c0.266-0.186,0.626-0.278,1.082-0.278h0.68v-0.34
		c0-0.201-0.062-0.36-0.184-0.479c-0.123-0.117-0.297-0.176-0.521-0.176c-0.203,0-0.368,0.051-0.493,0.152s-0.188,0.224-0.188,0.365
		l-0.594,0.007l-0.007-0.02c-0.015-0.25,0.103-0.479,0.352-0.687s0.57-0.312,0.965-0.312c0.39,0,0.703,0.099,0.94,0.297
		s0.356,0.484,0.356,0.857v1.655c0,0.123,0.006,0.242,0.019,0.356s0.036,0.227,0.07,0.337H152.826z M151.787,39.649
		c0.227,0,0.431-0.058,0.613-0.175c0.182-0.116,0.301-0.25,0.355-0.4v-0.56h-0.702c-0.252,0-0.454,0.063-0.605,0.191
		c-0.151,0.127-0.228,0.276-0.228,0.447c0,0.153,0.048,0.273,0.144,0.363C151.459,39.605,151.601,39.649,151.787,39.649z"/>
	<path style="fill:#C9CFD2;" d="M154.148,38.451c0-0.553,0.118-0.999,0.354-1.338s0.567-0.509,0.993-0.509
		c0.201,0,0.38,0.037,0.536,0.111c0.155,0.074,0.288,0.183,0.398,0.324v-1.892h0.626v4.959h-0.479l-0.096-0.436
		c-0.112,0.165-0.251,0.29-0.416,0.375c-0.166,0.085-0.357,0.127-0.575,0.127c-0.42,0-0.748-0.151-0.985-0.456
		c-0.238-0.304-0.356-0.704-0.356-1.2V38.451z M154.774,38.518c0,0.348,0.071,0.626,0.213,0.835
		c0.143,0.209,0.362,0.313,0.661,0.313c0.187,0,0.344-0.043,0.471-0.128c0.127-0.084,0.231-0.203,0.312-0.355v-1.605
		c-0.08-0.142-0.185-0.255-0.313-0.339c-0.128-0.083-0.282-0.125-0.462-0.125c-0.301,0-0.523,0.124-0.666,0.372
		c-0.144,0.248-0.215,0.569-0.215,0.966V38.518z"/>
	<path style="fill:#C9CFD2;" d="M157.845,38.355c0-0.508,0.138-0.927,0.413-1.257c0.275-0.329,0.649-0.494,1.122-0.494
		c0.477,0,0.854,0.164,1.13,0.493c0.276,0.328,0.415,0.748,0.415,1.258v0.07c0,0.513-0.138,0.933-0.413,1.259
		s-0.651,0.489-1.126,0.489s-0.85-0.163-1.126-0.491c-0.277-0.327-0.415-0.746-0.415-1.257V38.355z M158.471,38.426
		c0,0.364,0.077,0.666,0.23,0.903s0.382,0.355,0.685,0.355c0.299,0,0.526-0.118,0.681-0.355s0.232-0.539,0.232-0.903v-0.07
		c0-0.359-0.078-0.659-0.234-0.899c-0.155-0.239-0.384-0.358-0.685-0.358c-0.299,0-0.525,0.119-0.679,0.358
		c-0.153,0.24-0.23,0.54-0.23,0.899V38.426z"/>
	<path style="fill:#C9CFD2;" d="M164.733,40.174c-0.494,0-0.879-0.157-1.155-0.474c-0.277-0.315-0.415-0.73-0.415-1.246v-0.14
		c0-0.493,0.143-0.902,0.428-1.226c0.284-0.323,0.633-0.484,1.044-0.484c0.46,0,0.805,0.143,1.034,0.429
		c0.23,0.286,0.345,0.667,0.345,1.142v0.33h-2.199l-0.01,0.017c0,0.345,0.076,0.625,0.229,0.841
		c0.152,0.215,0.386,0.322,0.699,0.322c0.212,0,0.397-0.03,0.558-0.091s0.297-0.144,0.411-0.249l0.245,0.406
		c-0.123,0.119-0.285,0.22-0.486,0.301C165.26,40.134,165.017,40.174,164.733,40.174z M164.635,37.098
		c-0.219,0-0.399,0.084-0.542,0.252c-0.144,0.169-0.23,0.385-0.263,0.647l0.007,0.016h1.551v-0.051c0-0.25-0.062-0.457-0.185-0.62
		C165.081,37.179,164.891,37.098,164.635,37.098z"/>
	<path style="fill:#C9CFD2;" d="M169.113,40.107h-0.63v-4.628h0.63V40.107z"/>
	<path style="fill:#C9CFD2;" d="M170.734,36.668l0.045,0.512c0.114-0.182,0.258-0.323,0.431-0.424s0.369-0.151,0.59-0.151
		c0.37,0,0.658,0.108,0.861,0.326c0.203,0.217,0.305,0.552,0.305,1.006v2.171h-0.626v-2.158c0-0.303-0.06-0.519-0.18-0.646
		c-0.119-0.127-0.303-0.19-0.548-0.19c-0.193,0-0.356,0.038-0.491,0.116c-0.135,0.077-0.241,0.186-0.319,0.325v2.553h-0.627v-3.439
		H170.734z"/>
	<path style="fill:#C9CFD2;" d="M175.023,39.094l0.054,0.241h0.019l0.061-0.241l0.792-2.426h0.639l-1.266,3.439h-0.474l-1.28-3.439
		h0.642L175.023,39.094z"/>
	<path style="fill:#C9CFD2;" d="M178.532,40.174c-0.494,0-0.879-0.157-1.155-0.474c-0.277-0.315-0.415-0.73-0.415-1.246v-0.14
		c0-0.493,0.143-0.902,0.428-1.226c0.284-0.323,0.633-0.484,1.044-0.484c0.46,0,0.805,0.143,1.034,0.429
		c0.23,0.286,0.345,0.667,0.345,1.142v0.33h-2.199l-0.01,0.017c0,0.345,0.076,0.625,0.229,0.841
		c0.152,0.215,0.386,0.322,0.699,0.322c0.212,0,0.397-0.03,0.558-0.091s0.297-0.144,0.411-0.249l0.245,0.406
		c-0.123,0.119-0.285,0.22-0.486,0.301C179.059,40.134,178.815,40.174,178.532,40.174z M178.434,37.098
		c-0.219,0-0.399,0.084-0.542,0.252c-0.144,0.169-0.23,0.385-0.263,0.647l0.007,0.016h1.551v-0.051c0-0.25-0.062-0.457-0.185-0.62
		C178.88,37.179,178.689,37.098,178.434,37.098z"/>
	<path style="fill:#C9CFD2;" d="M182.515,39.183c0-0.138-0.053-0.25-0.157-0.337c-0.105-0.087-0.304-0.163-0.597-0.229
		c-0.404-0.087-0.716-0.208-0.933-0.365c-0.217-0.156-0.326-0.366-0.326-0.629c0-0.28,0.12-0.52,0.358-0.719
		s0.547-0.299,0.926-0.299c0.391,0,0.706,0.106,0.947,0.317c0.242,0.213,0.357,0.459,0.347,0.741l-0.006,0.019h-0.598
		c0-0.147-0.065-0.282-0.195-0.403c-0.131-0.121-0.296-0.181-0.495-0.181c-0.22,0-0.385,0.05-0.494,0.148
		c-0.108,0.101-0.163,0.219-0.163,0.356c0,0.136,0.047,0.24,0.142,0.314c0.094,0.074,0.288,0.143,0.583,0.204
		c0.422,0.089,0.741,0.215,0.96,0.378c0.218,0.163,0.327,0.376,0.327,0.639c0,0.306-0.123,0.555-0.37,0.747
		c-0.247,0.193-0.569,0.289-0.968,0.289c-0.438,0-0.784-0.111-1.036-0.333c-0.253-0.223-0.372-0.482-0.359-0.779l0.006-0.019h0.598
		c0.011,0.222,0.094,0.385,0.248,0.487c0.155,0.103,0.336,0.154,0.544,0.154c0.223,0,0.396-0.047,0.522-0.142
		C182.451,39.449,182.515,39.329,182.515,39.183z"/>
	<path style="fill:#C9CFD2;" d="M184.79,35.839v0.829h0.652v0.464h-0.652v2.089c0,0.161,0.034,0.274,0.101,0.34
		s0.155,0.099,0.266,0.099c0.036,0,0.076-0.005,0.12-0.015c0.045-0.009,0.082-0.02,0.111-0.03l0.086,0.43
		c-0.047,0.038-0.115,0.069-0.206,0.094c-0.092,0.024-0.182,0.036-0.271,0.036c-0.254,0-0.457-0.076-0.607-0.23
		c-0.15-0.153-0.226-0.395-0.226-0.723v-2.089h-0.547v-0.464h0.547v-0.829H184.79z"/>
	<path style="fill:#C9CFD2;" d="M186.79,35.787h-0.626v-0.639h0.626V35.787z M186.79,40.107h-0.626v-3.439h0.626V40.107z"/>
	<path style="fill:#C9CFD2;" d="M187.643,38.451c0-0.553,0.117-0.999,0.354-1.338s0.566-0.509,0.99-0.509
		c0.219,0,0.41,0.044,0.576,0.132c0.165,0.088,0.304,0.215,0.416,0.38l0.076-0.448h0.499v3.459c0,0.44-0.128,0.779-0.385,1.016
		c-0.256,0.235-0.626,0.354-1.109,0.354c-0.165,0-0.344-0.022-0.535-0.068c-0.192-0.045-0.361-0.107-0.507-0.186l0.095-0.486
		c0.121,0.063,0.267,0.115,0.438,0.154c0.17,0.039,0.339,0.059,0.504,0.059c0.305,0,0.527-0.069,0.666-0.208
		s0.208-0.351,0.208-0.634v-0.392c-0.112,0.145-0.247,0.253-0.403,0.327c-0.157,0.074-0.339,0.111-0.544,0.111
		c-0.42,0-0.748-0.151-0.984-0.456c-0.236-0.304-0.354-0.704-0.354-1.2V38.451z M188.269,38.518c0,0.346,0.07,0.623,0.213,0.833
		c0.142,0.21,0.361,0.315,0.658,0.315c0.188,0,0.346-0.043,0.474-0.129c0.127-0.086,0.231-0.207,0.314-0.364V37.59
		c-0.081-0.146-0.186-0.263-0.314-0.348c-0.13-0.086-0.285-0.129-0.468-0.129c-0.299,0-0.52,0.124-0.663,0.372
		c-0.143,0.248-0.214,0.569-0.214,0.966V38.518z"/>
	<path style="fill:#C9CFD2;" d="M193.567,40.107c-0.021-0.104-0.038-0.195-0.049-0.275c-0.012-0.079-0.019-0.159-0.021-0.239
		c-0.116,0.165-0.269,0.304-0.456,0.414c-0.188,0.111-0.389,0.167-0.605,0.167c-0.357,0-0.631-0.091-0.818-0.274
		s-0.281-0.437-0.281-0.759c0-0.328,0.133-0.585,0.399-0.771c0.266-0.186,0.626-0.278,1.082-0.278h0.68v-0.34
		c0-0.201-0.062-0.36-0.184-0.479c-0.123-0.117-0.297-0.176-0.521-0.176c-0.203,0-0.368,0.051-0.493,0.152s-0.188,0.224-0.188,0.365
		l-0.594,0.007l-0.007-0.02c-0.015-0.25,0.103-0.479,0.352-0.687s0.57-0.312,0.965-0.312c0.39,0,0.703,0.099,0.94,0.297
		s0.356,0.484,0.356,0.857v1.655c0,0.123,0.006,0.242,0.019,0.356s0.036,0.227,0.07,0.337H193.567z M192.528,39.649
		c0.227,0,0.431-0.058,0.613-0.175c0.182-0.116,0.301-0.25,0.355-0.4v-0.56h-0.702c-0.252,0-0.454,0.063-0.605,0.191
		c-0.151,0.127-0.228,0.276-0.228,0.447c0,0.153,0.048,0.273,0.144,0.363C192.2,39.605,192.342,39.649,192.528,39.649z"/>
	<path style="fill:#C9CFD2;" d="M196.399,39.685c0.193,0,0.361-0.064,0.506-0.192c0.144-0.128,0.216-0.285,0.216-0.472h0.565
		l0.01,0.019c0.009,0.297-0.118,0.561-0.381,0.79c-0.264,0.23-0.568,0.345-0.916,0.345c-0.483,0-0.856-0.164-1.119-0.492
		c-0.263-0.329-0.394-0.737-0.394-1.228v-0.133c0-0.485,0.132-0.893,0.396-1.223c0.264-0.329,0.636-0.494,1.117-0.494
		c0.384,0,0.698,0.119,0.942,0.356c0.245,0.237,0.363,0.528,0.354,0.874l-0.006,0.019h-0.569c0-0.21-0.068-0.388-0.205-0.535
		s-0.309-0.221-0.517-0.221c-0.308,0-0.531,0.119-0.672,0.357c-0.142,0.238-0.212,0.527-0.212,0.866v0.133
		c0,0.346,0.069,0.638,0.208,0.875C195.863,39.566,196.088,39.685,196.399,39.685z"/>
	<path style="fill:#C9CFD2;" d="M199.117,35.787h-0.626v-0.639h0.626V35.787z M199.117,40.107h-0.626v-3.439h0.626V40.107z"/>
	<path style="fill:#C9CFD2;" d="M199.935,38.355c0-0.508,0.138-0.927,0.413-1.257c0.275-0.329,0.649-0.494,1.122-0.494
		c0.477,0,0.854,0.164,1.13,0.493c0.276,0.328,0.415,0.748,0.415,1.258v0.07c0,0.513-0.138,0.933-0.413,1.259
		s-0.651,0.489-1.126,0.489s-0.85-0.163-1.126-0.491c-0.277-0.327-0.415-0.746-0.415-1.257V38.355z M200.561,38.426
		c0,0.364,0.077,0.666,0.23,0.903s0.382,0.355,0.685,0.355c0.299,0,0.526-0.118,0.681-0.355s0.232-0.539,0.232-0.903v-0.07
		c0-0.359-0.078-0.659-0.234-0.899c-0.155-0.239-0.384-0.358-0.685-0.358c-0.299,0-0.525,0.119-0.679,0.358
		c-0.153,0.24-0.23,0.54-0.23,0.899V38.426z M201.778,35.209h0.73l0.007,0.02l-0.855,0.826h-0.471L201.778,35.209z"/>
	<path style="fill:#C9CFD2;" d="M204.34,36.668l0.045,0.512c0.114-0.182,0.258-0.323,0.431-0.424s0.369-0.151,0.59-0.151
		c0.37,0,0.658,0.108,0.861,0.326c0.203,0.217,0.305,0.552,0.305,1.006v2.171h-0.626v-2.158c0-0.303-0.06-0.519-0.18-0.646
		c-0.119-0.127-0.303-0.19-0.548-0.19c-0.193,0-0.356,0.038-0.491,0.116c-0.135,0.077-0.241,0.186-0.319,0.325v2.553h-0.627v-3.439
		H204.34z"/>
	<path style="fill:#C9CFD2;" d="M212.486,38.626l0.007,0.02c0.008,0.435-0.145,0.798-0.458,1.09
		c-0.313,0.293-0.728,0.438-1.243,0.438c-0.523,0-0.949-0.186-1.279-0.556c-0.329-0.371-0.494-0.842-0.494-1.411v-0.824
		c0-0.569,0.165-1.041,0.494-1.412c0.33-0.372,0.756-0.559,1.279-0.559s0.94,0.14,1.25,0.418c0.309,0.279,0.459,0.648,0.451,1.108
		l-0.007,0.019h-0.601c0-0.324-0.096-0.58-0.286-0.769c-0.19-0.189-0.46-0.283-0.808-0.283c-0.35,0-0.628,0.141-0.836,0.423
		c-0.207,0.281-0.312,0.631-0.312,1.049v0.83c0,0.421,0.104,0.773,0.312,1.055c0.208,0.282,0.486,0.423,0.836,0.423
		c0.348,0,0.617-0.094,0.808-0.281s0.286-0.446,0.286-0.777H212.486z"/>
	<path style="fill:#C9CFD2;" d="M213.898,35.787h-0.626v-0.639h0.626V35.787z M213.898,40.107h-0.626v-3.439h0.626V40.107z"/>
	<path style="fill:#C9CFD2;" d="M216.286,40.174c-0.494,0-0.879-0.157-1.155-0.474c-0.277-0.315-0.415-0.73-0.415-1.246v-0.14
		c0-0.493,0.143-0.902,0.428-1.226c0.284-0.323,0.633-0.484,1.044-0.484c0.46,0,0.805,0.143,1.034,0.429
		c0.23,0.286,0.345,0.667,0.345,1.142v0.33h-2.199l-0.01,0.017c0,0.345,0.076,0.625,0.229,0.841
		c0.152,0.215,0.386,0.322,0.699,0.322c0.212,0,0.397-0.03,0.558-0.091s0.297-0.144,0.411-0.249l0.245,0.406
		c-0.123,0.119-0.285,0.22-0.486,0.301C216.813,40.134,216.569,40.174,216.286,40.174z M216.188,37.098
		c-0.219,0-0.399,0.084-0.542,0.252c-0.144,0.169-0.23,0.385-0.263,0.647l0.007,0.016h1.551v-0.051c0-0.25-0.062-0.457-0.185-0.62
		C216.634,37.179,216.443,37.098,216.188,37.098z"/>
	<path style="fill:#C9CFD2;" d="M218.828,36.668l0.045,0.512c0.114-0.182,0.258-0.323,0.431-0.424s0.369-0.151,0.59-0.151
		c0.37,0,0.658,0.108,0.861,0.326c0.203,0.217,0.305,0.552,0.305,1.006v2.171h-0.626v-2.158c0-0.303-0.06-0.519-0.18-0.646
		c-0.119-0.127-0.303-0.19-0.548-0.19c-0.193,0-0.356,0.038-0.491,0.116c-0.135,0.077-0.241,0.186-0.319,0.325v2.553h-0.627v-3.439
		H218.828z"/>
	<path style="fill:#C9CFD2;" d="M222.84,35.839v0.829h0.652v0.464h-0.652v2.089c0,0.161,0.034,0.274,0.101,0.34
		s0.155,0.099,0.266,0.099c0.036,0,0.076-0.005,0.12-0.015c0.045-0.009,0.082-0.02,0.111-0.03l0.086,0.43
		c-0.047,0.038-0.115,0.069-0.206,0.094c-0.092,0.024-0.182,0.036-0.271,0.036c-0.254,0-0.457-0.076-0.607-0.23
		c-0.15-0.153-0.226-0.395-0.226-0.723v-2.089h-0.547v-0.464h0.547v-0.829H222.84z"/>
	<path style="fill:#C9CFD2;" d="M224.82,40.107h-0.626v-3.439h0.626V40.107z M224.811,35.275h0.731l0.007,0.02l-0.855,0.826h-0.471
		L224.811,35.275z"/>
	<path style="fill:#C9CFD2;" d="M225.974,40.107v-2.976h-0.54v-0.464h0.54v-0.372c0-0.386,0.113-0.685,0.339-0.896
		s0.539-0.317,0.939-0.317c0.142,0,0.282,0.017,0.42,0.049c0.138,0.033,0.3,0.081,0.486,0.145l-0.108,0.509
		c-0.112-0.044-0.232-0.082-0.359-0.114s-0.257-0.048-0.391-0.048c-0.248,0-0.427,0.056-0.536,0.165
		c-0.108,0.11-0.163,0.28-0.163,0.509v0.372h0.684v0.464h-0.684v2.976H225.974z M228.463,40.107h-0.629v-3.439h0.629V40.107z"/>
	<path style="fill:#C9CFD2;" d="M230.79,39.685c0.193,0,0.361-0.064,0.506-0.192c0.144-0.128,0.216-0.285,0.216-0.472h0.565
		l0.01,0.019c0.009,0.297-0.118,0.561-0.381,0.79c-0.264,0.23-0.568,0.345-0.916,0.345c-0.483,0-0.856-0.164-1.119-0.492
		c-0.263-0.329-0.394-0.737-0.394-1.228v-0.133c0-0.485,0.132-0.893,0.396-1.223c0.264-0.329,0.636-0.494,1.117-0.494
		c0.384,0,0.698,0.119,0.942,0.356c0.245,0.237,0.363,0.528,0.354,0.874l-0.006,0.019h-0.569c0-0.21-0.068-0.388-0.205-0.535
		s-0.309-0.221-0.517-0.221c-0.308,0-0.531,0.119-0.672,0.357c-0.142,0.238-0.212,0.527-0.212,0.866v0.133
		c0,0.346,0.069,0.638,0.208,0.875C230.254,39.566,230.479,39.685,230.79,39.685z"/>
	<path style="fill:#C9CFD2;" d="M234.944,40.107c-0.021-0.104-0.038-0.195-0.049-0.275c-0.012-0.079-0.019-0.159-0.021-0.239
		c-0.116,0.165-0.269,0.304-0.456,0.414c-0.188,0.111-0.389,0.167-0.605,0.167c-0.357,0-0.631-0.091-0.818-0.274
		s-0.281-0.437-0.281-0.759c0-0.328,0.133-0.585,0.399-0.771c0.266-0.186,0.626-0.278,1.082-0.278h0.68v-0.34
		c0-0.201-0.062-0.36-0.184-0.479c-0.123-0.117-0.297-0.176-0.521-0.176c-0.203,0-0.368,0.051-0.493,0.152s-0.188,0.224-0.188,0.365
		l-0.594,0.007l-0.007-0.02c-0.015-0.25,0.103-0.479,0.352-0.687s0.57-0.312,0.965-0.312c0.39,0,0.703,0.099,0.94,0.297
		s0.356,0.484,0.356,0.857v1.655c0,0.123,0.006,0.242,0.019,0.356s0.036,0.227,0.07,0.337H234.944z M233.905,39.649
		c0.227,0,0.431-0.058,0.613-0.175c0.182-0.116,0.301-0.25,0.355-0.4v-0.56h-0.702c-0.252,0-0.454,0.063-0.605,0.191
		c-0.151,0.127-0.228,0.276-0.228,0.447c0,0.153,0.048,0.273,0.144,0.363C233.577,39.605,233.719,39.649,233.905,39.649z"/>
</g>
<g>
	<path style="fill:#C9CFD2;" d="M122.426,47.236h-1.952v2.047h-0.626v-4.628h2.902v0.492h-2.276v1.596h1.952V47.236z"/>
	<path style="fill:#C9CFD2;" d="M125.36,49.283c-0.021-0.104-0.038-0.195-0.049-0.275c-0.012-0.079-0.019-0.159-0.021-0.239
		c-0.117,0.165-0.269,0.304-0.456,0.414c-0.188,0.111-0.39,0.167-0.605,0.167c-0.358,0-0.631-0.091-0.819-0.274
		s-0.281-0.437-0.281-0.759c0-0.328,0.133-0.585,0.399-0.771s0.627-0.278,1.083-0.278h0.68v-0.34c0-0.201-0.062-0.36-0.185-0.479
		c-0.123-0.117-0.296-0.176-0.521-0.176c-0.204,0-0.368,0.051-0.493,0.152c-0.125,0.102-0.188,0.224-0.188,0.365l-0.595,0.007
		l-0.006-0.02c-0.015-0.25,0.102-0.479,0.351-0.687s0.571-0.312,0.965-0.312c0.39,0,0.704,0.099,0.941,0.297
		s0.356,0.484,0.356,0.857v1.655c0,0.123,0.006,0.242,0.019,0.356s0.036,0.227,0.07,0.337H125.36z M124.32,48.825
		c0.227,0,0.431-0.058,0.614-0.175c0.182-0.116,0.301-0.25,0.356-0.4v-0.56h-0.703c-0.252,0-0.454,0.063-0.605,0.191
		c-0.151,0.127-0.227,0.276-0.227,0.447c0,0.153,0.047,0.273,0.143,0.363C123.993,48.781,124.134,48.825,124.32,48.825z"/>
	<path style="fill:#C9CFD2;" d="M128.192,48.86c0.193,0,0.361-0.064,0.505-0.192s0.216-0.285,0.216-0.472h0.566l0.01,0.019
		c0.009,0.297-0.119,0.561-0.382,0.79c-0.263,0.23-0.568,0.345-0.916,0.345c-0.483,0-0.856-0.164-1.119-0.492
		c-0.263-0.329-0.395-0.737-0.395-1.228v-0.133c0-0.485,0.132-0.893,0.396-1.223c0.264-0.329,0.636-0.494,1.117-0.494
		c0.384,0,0.698,0.119,0.943,0.356s0.363,0.528,0.354,0.874l-0.007,0.019h-0.569c0-0.21-0.068-0.388-0.205-0.535
		s-0.309-0.221-0.517-0.221c-0.307,0-0.531,0.119-0.672,0.357c-0.141,0.238-0.211,0.527-0.211,0.866v0.133
		c0,0.346,0.07,0.638,0.208,0.875S127.88,48.86,128.192,48.86z"/>
	<path style="fill:#C9CFD2;" d="M132.417,48.774c-0.108,0.185-0.247,0.326-0.417,0.426c-0.169,0.1-0.365,0.149-0.588,0.149
		c-0.375,0-0.667-0.119-0.877-0.358c-0.21-0.24-0.314-0.613-0.314-1.119v-2.028h0.626v2.034c0,0.367,0.054,0.619,0.162,0.757
		s0.276,0.207,0.505,0.207c0.223,0,0.407-0.046,0.552-0.136c0.146-0.09,0.255-0.218,0.329-0.383v-2.479h0.626v3.439h-0.563
		L132.417,48.774z"/>
	<path style="fill:#C9CFD2;" d="M134.61,49.283h-0.626v-4.959h0.626V49.283z"/>
	<path style="fill:#C9CFD2;" d="M136.444,45.015v0.829h0.651v0.464h-0.651v2.089c0,0.161,0.033,0.274,0.101,0.34
		c0.066,0.065,0.155,0.099,0.265,0.099c0.036,0,0.077-0.005,0.121-0.015c0.045-0.009,0.082-0.02,0.111-0.03l0.086,0.43
		c-0.047,0.038-0.115,0.069-0.207,0.094c-0.091,0.024-0.181,0.036-0.27,0.036c-0.255,0-0.457-0.076-0.607-0.23
		c-0.15-0.153-0.226-0.395-0.226-0.723v-2.089h-0.547v-0.464h0.547v-0.829H136.444z"/>
	<path style="fill:#C9CFD2;" d="M139.881,49.283c-0.021-0.104-0.038-0.195-0.05-0.275c-0.012-0.079-0.019-0.159-0.021-0.239
		c-0.116,0.165-0.269,0.304-0.456,0.414c-0.188,0.111-0.39,0.167-0.605,0.167c-0.358,0-0.631-0.091-0.818-0.274
		s-0.281-0.437-0.281-0.759c0-0.328,0.133-0.585,0.398-0.771c0.267-0.186,0.627-0.278,1.083-0.278h0.68v-0.34
		c0-0.201-0.062-0.36-0.185-0.479c-0.122-0.117-0.296-0.176-0.521-0.176c-0.204,0-0.368,0.051-0.493,0.152s-0.188,0.224-0.188,0.365
		l-0.595,0.007l-0.006-0.02c-0.015-0.25,0.102-0.479,0.351-0.687s0.571-0.312,0.965-0.312c0.391,0,0.704,0.099,0.941,0.297
		s0.355,0.484,0.355,0.857v1.655c0,0.123,0.007,0.242,0.02,0.356s0.036,0.227,0.07,0.337H139.881z M138.841,48.825
		c0.228,0,0.432-0.058,0.614-0.175c0.182-0.116,0.301-0.25,0.355-0.4v-0.56h-0.702c-0.252,0-0.454,0.063-0.605,0.191
		c-0.151,0.127-0.228,0.276-0.228,0.447c0,0.153,0.048,0.273,0.143,0.363C138.514,48.781,138.654,48.825,138.841,48.825z"/>
	<path style="fill:#C9CFD2;" d="M141.203,47.627c0-0.553,0.118-0.999,0.354-1.338s0.567-0.509,0.993-0.509
		c0.201,0,0.38,0.037,0.535,0.111c0.156,0.074,0.289,0.183,0.399,0.324v-1.892h0.626v4.959h-0.479l-0.096-0.436
		c-0.112,0.165-0.251,0.29-0.416,0.375c-0.166,0.085-0.357,0.127-0.576,0.127c-0.419,0-0.748-0.151-0.985-0.456
		c-0.237-0.304-0.355-0.704-0.355-1.2V47.627z M141.829,47.693c0,0.348,0.071,0.626,0.213,0.835s0.362,0.313,0.661,0.313
		c0.187,0,0.344-0.043,0.471-0.128c0.127-0.084,0.23-0.203,0.312-0.355v-1.605c-0.081-0.142-0.186-0.255-0.313-0.339
		c-0.128-0.083-0.282-0.125-0.462-0.125c-0.302,0-0.523,0.124-0.666,0.372c-0.144,0.248-0.215,0.569-0.215,0.966V47.693z"/>
	<path style="fill:#C9CFD2;" d="M150.249,49.283h-0.626l-2.229-3.535l-0.019,0.007v3.528h-0.626v-4.628h0.626l2.229,3.531
		l0.019-0.006v-3.525h0.626V49.283z"/>
	<path style="fill:#C9CFD2;" d="M153.361,49.283c-0.021-0.104-0.037-0.195-0.049-0.275c-0.012-0.079-0.019-0.159-0.021-0.239
		c-0.117,0.165-0.269,0.304-0.456,0.414c-0.188,0.111-0.39,0.167-0.605,0.167c-0.358,0-0.632-0.091-0.819-0.274
		s-0.281-0.437-0.281-0.759c0-0.328,0.133-0.585,0.399-0.771c0.266-0.186,0.627-0.278,1.082-0.278h0.681v-0.34
		c0-0.201-0.062-0.36-0.185-0.479c-0.123-0.117-0.297-0.176-0.521-0.176c-0.203,0-0.367,0.051-0.492,0.152
		c-0.126,0.102-0.188,0.224-0.188,0.365l-0.595,0.007l-0.007-0.02c-0.015-0.25,0.103-0.479,0.352-0.687s0.57-0.312,0.965-0.312
		c0.39,0,0.703,0.099,0.94,0.297s0.356,0.484,0.356,0.857v1.655c0,0.123,0.006,0.242,0.019,0.356s0.036,0.227,0.07,0.337H153.361z
		 M152.322,48.825c0.227,0,0.431-0.058,0.613-0.175c0.183-0.116,0.301-0.25,0.356-0.4v-0.56h-0.703
		c-0.252,0-0.454,0.063-0.605,0.191c-0.151,0.127-0.227,0.276-0.227,0.447c0,0.153,0.047,0.273,0.143,0.363
		C151.995,48.781,152.136,48.825,152.322,48.825z"/>
	<path style="fill:#C9CFD2;" d="M156.193,48.86c0.193,0,0.361-0.064,0.506-0.192c0.144-0.128,0.216-0.285,0.216-0.472h0.566
		l0.009,0.019c0.009,0.297-0.118,0.561-0.381,0.79c-0.263,0.23-0.568,0.345-0.916,0.345c-0.482,0-0.855-0.164-1.118-0.492
		c-0.263-0.329-0.395-0.737-0.395-1.228v-0.133c0-0.485,0.132-0.893,0.396-1.223c0.264-0.329,0.637-0.494,1.117-0.494
		c0.384,0,0.698,0.119,0.942,0.356c0.245,0.237,0.363,0.528,0.354,0.874l-0.006,0.019h-0.569c0-0.21-0.068-0.388-0.205-0.535
		s-0.309-0.221-0.517-0.221c-0.307,0-0.531,0.119-0.672,0.357s-0.212,0.527-0.212,0.866v0.133c0,0.346,0.07,0.638,0.209,0.875
		S155.882,48.86,156.193,48.86z"/>
	<path style="fill:#C9CFD2;" d="M158.911,44.963h-0.626v-0.639h0.626V44.963z M158.911,49.283h-0.626v-3.439h0.626V49.283z"/>
	<path style="fill:#C9CFD2;" d="M159.729,47.531c0-0.508,0.138-0.927,0.413-1.257c0.275-0.329,0.649-0.494,1.122-0.494
		c0.477,0,0.854,0.164,1.13,0.493c0.276,0.328,0.415,0.748,0.415,1.258v0.07c0,0.513-0.138,0.933-0.413,1.259
		s-0.651,0.489-1.126,0.489s-0.85-0.163-1.126-0.491c-0.277-0.327-0.415-0.746-0.415-1.257V47.531z M160.354,47.602
		c0,0.364,0.077,0.666,0.23,0.903s0.382,0.355,0.685,0.355c0.299,0,0.526-0.118,0.681-0.355s0.232-0.539,0.232-0.903v-0.07
		c0-0.359-0.078-0.659-0.234-0.899c-0.155-0.239-0.384-0.358-0.685-0.358c-0.299,0-0.525,0.119-0.679,0.358
		c-0.153,0.24-0.23,0.54-0.23,0.899V47.602z"/>
	<path style="fill:#C9CFD2;" d="M164.134,45.844l0.045,0.512c0.114-0.182,0.258-0.323,0.431-0.424s0.369-0.151,0.59-0.151
		c0.37,0,0.658,0.108,0.861,0.326c0.203,0.217,0.305,0.552,0.305,1.006v2.171h-0.626v-2.158c0-0.303-0.06-0.519-0.18-0.646
		c-0.119-0.127-0.303-0.19-0.548-0.19c-0.193,0-0.356,0.038-0.491,0.116c-0.135,0.077-0.241,0.186-0.319,0.325v2.553h-0.627v-3.439
		H164.134z"/>
	<path style="fill:#C9CFD2;" d="M169.388,49.283c-0.021-0.104-0.038-0.195-0.049-0.275c-0.012-0.079-0.019-0.159-0.021-0.239
		c-0.116,0.165-0.269,0.304-0.456,0.414c-0.188,0.111-0.389,0.167-0.605,0.167c-0.357,0-0.631-0.091-0.818-0.274
		s-0.281-0.437-0.281-0.759c0-0.328,0.133-0.585,0.399-0.771c0.266-0.186,0.626-0.278,1.082-0.278h0.68v-0.34
		c0-0.201-0.062-0.36-0.184-0.479c-0.123-0.117-0.297-0.176-0.521-0.176c-0.203,0-0.368,0.051-0.493,0.152s-0.188,0.224-0.188,0.365
		l-0.594,0.007l-0.007-0.02c-0.015-0.25,0.103-0.479,0.352-0.687s0.57-0.312,0.965-0.312c0.39,0,0.703,0.099,0.94,0.297
		s0.356,0.484,0.356,0.857v1.655c0,0.123,0.006,0.242,0.019,0.356s0.036,0.227,0.07,0.337H169.388z M168.349,48.825
		c0.227,0,0.431-0.058,0.613-0.175c0.182-0.116,0.301-0.25,0.355-0.4v-0.56h-0.702c-0.252,0-0.454,0.063-0.605,0.191
		c-0.151,0.127-0.228,0.276-0.228,0.447c0,0.153,0.048,0.273,0.144,0.363C168.021,48.781,168.162,48.825,168.349,48.825z"/>
	<path style="fill:#C9CFD2;" d="M171.531,49.283h-0.626v-4.959h0.626V49.283z"/>
	<path style="fill:#C9CFD2;" d="M173.969,47.627c0-0.553,0.118-0.999,0.354-1.338s0.567-0.509,0.993-0.509
		c0.201,0,0.38,0.037,0.536,0.111c0.155,0.074,0.288,0.183,0.398,0.324v-1.892h0.626v4.959h-0.479l-0.096-0.436
		c-0.112,0.165-0.251,0.29-0.416,0.375c-0.166,0.085-0.357,0.127-0.575,0.127c-0.42,0-0.748-0.151-0.985-0.456
		c-0.238-0.304-0.356-0.704-0.356-1.2V47.627z M174.595,47.693c0,0.348,0.071,0.626,0.213,0.835
		c0.143,0.209,0.362,0.313,0.661,0.313c0.187,0,0.344-0.043,0.471-0.128c0.127-0.084,0.231-0.203,0.312-0.355v-1.605
		c-0.08-0.142-0.185-0.255-0.313-0.339c-0.128-0.083-0.282-0.125-0.462-0.125c-0.301,0-0.523,0.124-0.666,0.372
		c-0.144,0.248-0.215,0.569-0.215,0.966V47.693z"/>
	<path style="fill:#C9CFD2;" d="M179.236,49.35c-0.494,0-0.879-0.157-1.155-0.474c-0.277-0.315-0.415-0.73-0.415-1.246v-0.14
		c0-0.493,0.143-0.902,0.428-1.226c0.284-0.323,0.633-0.484,1.044-0.484c0.46,0,0.805,0.143,1.034,0.429
		c0.23,0.286,0.345,0.667,0.345,1.142v0.33h-2.199l-0.01,0.017c0,0.345,0.076,0.625,0.229,0.841
		c0.152,0.215,0.386,0.322,0.699,0.322c0.212,0,0.397-0.03,0.558-0.091s0.297-0.144,0.411-0.249l0.245,0.406
		c-0.123,0.119-0.285,0.22-0.486,0.301C179.763,49.31,179.52,49.35,179.236,49.35z M179.138,46.273
		c-0.219,0-0.399,0.084-0.542,0.252c-0.144,0.169-0.23,0.385-0.263,0.647l0.007,0.016h1.551v-0.051c0-0.25-0.062-0.457-0.185-0.62
		C179.584,46.354,179.394,46.273,179.138,46.273z"/>
	<path style="fill:#C9CFD2;" d="M183.616,49.283h-0.63v-4.628h0.63V49.283z"/>
	<path style="fill:#C9CFD2;" d="M185.237,45.844l0.045,0.512c0.114-0.182,0.258-0.323,0.431-0.424s0.369-0.151,0.59-0.151
		c0.37,0,0.658,0.108,0.861,0.326c0.203,0.217,0.305,0.552,0.305,1.006v2.171h-0.626v-2.158c0-0.303-0.06-0.519-0.18-0.646
		c-0.119-0.127-0.303-0.19-0.548-0.19c-0.193,0-0.356,0.038-0.491,0.116c-0.135,0.077-0.241,0.186-0.319,0.325v2.553h-0.627v-3.439
		H185.237z"/>
	<path style="fill:#C9CFD2;" d="M188.267,47.627c0-0.553,0.117-0.999,0.354-1.338s0.566-0.509,0.99-0.509
		c0.219,0,0.41,0.044,0.576,0.132c0.165,0.088,0.304,0.215,0.416,0.38l0.076-0.448h0.499v3.459c0,0.44-0.128,0.779-0.385,1.016
		c-0.256,0.235-0.626,0.354-1.109,0.354c-0.165,0-0.344-0.022-0.535-0.068c-0.192-0.045-0.361-0.107-0.507-0.186l0.095-0.486
		c0.121,0.063,0.267,0.115,0.438,0.154c0.17,0.039,0.339,0.059,0.504,0.059c0.305,0,0.527-0.069,0.666-0.208
		s0.208-0.351,0.208-0.634v-0.392c-0.112,0.145-0.247,0.253-0.403,0.327c-0.157,0.074-0.339,0.111-0.544,0.111
		c-0.42,0-0.748-0.151-0.984-0.456c-0.236-0.304-0.354-0.704-0.354-1.2V47.627z M188.893,47.693c0,0.346,0.07,0.623,0.213,0.833
		c0.142,0.21,0.361,0.315,0.658,0.315c0.188,0,0.346-0.043,0.474-0.129c0.127-0.086,0.231-0.207,0.314-0.364v-1.583
		c-0.081-0.146-0.186-0.263-0.314-0.348c-0.13-0.086-0.285-0.129-0.468-0.129c-0.299,0-0.52,0.124-0.663,0.372
		c-0.143,0.248-0.214,0.569-0.214,0.966V47.693z"/>
	<path style="fill:#C9CFD2;" d="M193.502,49.35c-0.494,0-0.879-0.157-1.155-0.474c-0.277-0.315-0.415-0.73-0.415-1.246v-0.14
		c0-0.493,0.143-0.902,0.428-1.226c0.284-0.323,0.633-0.484,1.044-0.484c0.46,0,0.805,0.143,1.034,0.429
		c0.23,0.286,0.345,0.667,0.345,1.142v0.33h-2.199l-0.01,0.017c0,0.345,0.076,0.625,0.229,0.841
		c0.152,0.215,0.386,0.322,0.699,0.322c0.212,0,0.397-0.03,0.558-0.091s0.297-0.144,0.411-0.249l0.245,0.406
		c-0.123,0.119-0.285,0.22-0.486,0.301C194.028,49.31,193.785,49.35,193.502,49.35z M193.403,46.273
		c-0.219,0-0.399,0.084-0.542,0.252c-0.144,0.169-0.23,0.385-0.263,0.647l0.007,0.016h1.551v-0.051c0-0.25-0.062-0.457-0.185-0.62
		C193.85,46.354,193.659,46.273,193.403,46.273z"/>
	<path style="fill:#C9CFD2;" d="M196.045,45.844l0.045,0.512c0.114-0.182,0.258-0.323,0.431-0.424s0.369-0.151,0.59-0.151
		c0.37,0,0.658,0.108,0.861,0.326c0.203,0.217,0.305,0.552,0.305,1.006v2.171h-0.626v-2.158c0-0.303-0.06-0.519-0.18-0.646
		c-0.119-0.127-0.303-0.19-0.548-0.19c-0.193,0-0.356,0.038-0.491,0.116c-0.135,0.077-0.241,0.186-0.319,0.325v2.553h-0.627v-3.439
		H196.045z"/>
	<path style="fill:#C9CFD2;" d="M199.862,44.963h-0.626v-0.639h0.626V44.963z M199.862,49.283h-0.626v-3.439h0.626V49.283z"/>
	<path style="fill:#C9CFD2;" d="M202.25,49.35c-0.494,0-0.879-0.157-1.155-0.474c-0.277-0.315-0.415-0.73-0.415-1.246v-0.14
		c0-0.493,0.143-0.902,0.428-1.226c0.284-0.323,0.633-0.484,1.044-0.484c0.46,0,0.805,0.143,1.034,0.429
		c0.23,0.286,0.345,0.667,0.345,1.142v0.33h-2.199l-0.01,0.017c0,0.345,0.076,0.625,0.229,0.841
		c0.152,0.215,0.386,0.322,0.699,0.322c0.212,0,0.397-0.03,0.558-0.091s0.297-0.144,0.411-0.249l0.245,0.406
		c-0.123,0.119-0.285,0.22-0.486,0.301C202.776,49.31,202.533,49.35,202.25,49.35z M202.151,46.273
		c-0.219,0-0.399,0.084-0.542,0.252c-0.144,0.169-0.23,0.385-0.263,0.647l0.007,0.016h1.551v-0.051c0-0.25-0.062-0.457-0.185-0.62
		C202.598,46.354,202.407,46.273,202.151,46.273z"/>
	<path style="fill:#C9CFD2;" d="M205.86,46.396l-0.321-0.019c-0.165,0-0.305,0.039-0.418,0.117c-0.113,0.079-0.2,0.189-0.262,0.331
		v2.457h-0.627v-3.439h0.56l0.061,0.502c0.098-0.178,0.218-0.316,0.361-0.416c0.143-0.1,0.308-0.149,0.494-0.149
		c0.046,0,0.091,0.004,0.133,0.011c0.043,0.008,0.078,0.016,0.105,0.024L205.86,46.396z"/>
	<path style="fill:#C9CFD2;" d="M207.17,49.283h-0.626v-3.439h0.626V49.283z M207.16,44.451h0.731l0.007,0.02l-0.855,0.826h-0.471
		L207.16,44.451z"/>
	<path style="fill:#C9CFD2;" d="M210.263,49.283c-0.021-0.104-0.038-0.195-0.049-0.275c-0.012-0.079-0.019-0.159-0.021-0.239
		c-0.116,0.165-0.269,0.304-0.456,0.414c-0.188,0.111-0.389,0.167-0.605,0.167c-0.357,0-0.631-0.091-0.818-0.274
		s-0.281-0.437-0.281-0.759c0-0.328,0.133-0.585,0.399-0.771c0.266-0.186,0.626-0.278,1.082-0.278h0.68v-0.34
		c0-0.201-0.062-0.36-0.184-0.479c-0.123-0.117-0.297-0.176-0.521-0.176c-0.203,0-0.368,0.051-0.493,0.152s-0.188,0.224-0.188,0.365
		l-0.594,0.007l-0.007-0.02c-0.015-0.25,0.103-0.479,0.352-0.687s0.57-0.312,0.965-0.312c0.39,0,0.703,0.099,0.94,0.297
		s0.356,0.484,0.356,0.857v1.655c0,0.123,0.006,0.242,0.019,0.356s0.036,0.227,0.07,0.337H210.263z M209.224,48.825
		c0.227,0,0.431-0.058,0.613-0.175c0.182-0.116,0.301-0.25,0.355-0.4v-0.56h-0.702c-0.252,0-0.454,0.063-0.605,0.191
		c-0.151,0.127-0.228,0.276-0.228,0.447c0,0.153,0.048,0.273,0.144,0.363C208.896,48.781,209.037,48.825,209.224,48.825z"/>
</g>
</svg>
